<svg xmlns="http://www.w3.org/2000/svg" viewBox="0 0 1024 1024" fill="#000000">
<g transform="translate(0,1024) scale(0.1,-0.1)">
<path d="M7617 7750 c-287 -49 -516 -228 -594 -465 -21 -65 -26 -100 -26 -185
-2 -169 44 -285 161 -411 74 -80 72 -57 20 -267 -17 -68 -27 -126 -24 -129 8
-9 63 18 216 106 l125 72 85 -16 c110 -20 289 -20 375 0 167 39 281 101 395
215 212 212 241 524 71 774 -67 99 -204 204 -334 256 -131 52 -329 73 -470 50z
m385 -431 c28 -15 58 -69 58 -104 0 -37 -30 -88 -65 -111 -14 -9 -32 -32 -40
-51 -13 -30 -18 -34 -47 -31 -31 3 -33 5 -30 38 3 25 17 49 48 82 64 68 58
118 -14 118 -28 0 -36 -5 -45 -30 -9 -23 -18 -30 -37 -30 -39 0 -52 13 -45 43
9 35 50 75 89 87 35 10 98 5 128 -11z m-382 -27 c61 -38 90 -90 90 -166 0 -71
-28 -128 -76 -151 -40 -19 -61 -19 -97 0 -26 13 -31 13 -50 0 -33 -23 -66 -18
-98 14 -49 49 -38 132 26 191 23 21 36 25 89 24 98 -1 96 1 79 -95 -16 -92
-10 -110 31 -91 17 8 29 25 36 54 31 114 -34 198 -153 198 -120 0 -192 -75
-192 -200 0 -77 24 -119 85 -150 43 -22 131 -27 174 -10 21 8 26 6 31 -11 11
-33 -10 -43 -88 -47 -125 -7 -195 26 -239 112 -25 48 -29 141 -9 200 15 45 72
111 112 132 80 41 178 39 249 -4z m622 -22 c-1 -30 -5 -97 -8 -147 l-6 -93
-34 0 -34 0 0 83 c0 45 -3 113 -7 150 l-6 68 49 -3 48 -3 -2 -55z m-14 -296
c41 -29 23 -84 -28 -84 -32 0 -50 17 -50 46 0 20 32 54 50 54 3 0 16 -7 28
-16z m-280 -6 c7 -7 12 -21 12 -33 0 -29 -19 -45 -52 -45 -36 0 -56 36 -39 69
13 23 59 29 79 9z M7463 7145 c-43 -30 -53 -115 -16 -129 41 -16 71 23 76 99
2 33 -1 40 -18 43 -11 1 -30 -4 -42 -13z M4555 7513 c-354 -44 -580 -97 -820
-193 -124 -49 -322 -151 -407 -208 -63 -42 -80 -60 -98 -101 -15 -32 -39 -61
-71 -86 -71 -54 -235 -229 -300 -321 -80 -111 -162 -262 -214 -391 -41 -102
-96 -295 -111 -389 l-6 -40 -76 -13 c-228 -39 -441 -179 -580 -383 -51 -74
-110 -205 -133 -293 -29 -114 -36 -285 -15 -403 61 -349 324 -640 661 -733 62
-17 89 -30 123 -61 80 -74 183 -101 280 -75 l54 14 11 -26 c139 -335 339 -609
607 -833 380 -319 864 -498 1344 -498 219 0 505 52 715 131 491 184 927 574
1150 1029 32 63 64 134 74 157 l16 41 47 -14 c102 -30 196 -8 276 65 44 40 66
52 123 66 206 51 437 221 543 398 166 278 187 608 57 901 -68 153 -190 294
-337 390 -101 65 -189 101 -308 125 l-84 17 -32 140 c-89 391 -287 725 -581
983 -56 49 -84 81 -88 101 -8 38 -53 77 -172 147 -408 239 -906 366 -1430 362
-103 -1 -201 -4 -218 -6z m595 -328 c353 -50 642 -152 944 -333 92 -56 117
-66 158 -67 47 -1 52 -4 129 -81 203 -200 355 -462 424 -730 29 -116 32 -154
10 -154 -9 0 -29 -7 -45 -15 l-30 -15 -44 87 c-240 478 -703 849 -1259 1009
-146 42 -319 72 -451 80 -56 3 -126 7 -156 8 -78 5 -298 -11 -405 -30 -526
-93 -969 -337 -1276 -702 -99 -118 -186 -247 -245 -364 l-44 -88 -45 22 c-27
13 -45 29 -45 39 0 41 62 256 99 342 79 186 179 335 328 488 l94 97 57 4 c46
4 70 13 127 49 321 207 688 329 1130 373 86 9 436 -4 545 -19z m-1015 -1205
c249 -29 448 -135 605 -324 30 -37 57 -65 60 -64 4 2 34 35 67 74 132 154 310
262 496 300 40 9 122 15 185 15 240 -1 426 -78 595 -247 248 -247 315 -635
169 -983 -48 -113 -118 -208 -248 -336 l-122 -121 25 -29 c46 -56 129 -190
155 -250 46 -109 62 -191 61 -315 -2 -196 -61 -353 -193 -506 -73 -86 -206
-193 -326 -263 -143 -83 -363 -160 -569 -197 -121 -22 -437 -25 -560 -5 -392
61 -770 257 -951 493 -64 83 -121 194 -145 284 -31 114 -31 289 0 398 27 97
96 233 162 320 27 36 49 67 49 69 0 3 -55 60 -122 128 -175 176 -268 343 -303
543 -88 507 237 957 735 1016 36 4 70 8 75 9 6 0 51 -4 100 -9z m-1779 -1677
c-11 -11 -79 37 -147 106 -120 120 -189 284 -189 451 0 206 111 416 275 522
l60 39 3 -557 c1 -306 0 -559 -2 -561z m5047 998 c67 -72 125 -171 153 -266
14 -44 18 -92 18 -180 0 -104 -4 -131 -28 -199 -32 -94 -95 -193 -162 -257
-49 -46 -122 -99 -136 -99 -5 0 -8 252 -8 561 l0 560 51 -27 c27 -15 78 -57
112 -93z M3914 5211 c-54 -25 -112 -83 -138 -140 -17 -38 -21 -64 -21 -156 1
-97 4 -117 27 -165 14 -30 41 -72 59 -92 l34 -37 80 19 c44 11 130 28 190 38
l110 18 14 40 c22 63 26 221 7 287 -20 71 -68 133 -130 172 -64 39 -168 46
-232 16z m213 -113 c30 -34 36 -63 19 -96 -19 -37 -63 -56 -97 -43 -36 13 -51
35 -52 77 -2 70 85 111 130 62z M5490 5211 c-140 -50 -218 -236 -176 -425 10
-41 22 -79 29 -84 7 -5 52 -15 101 -22 49 -7 133 -23 185 -37 l96 -24 37 42
c75 83 109 249 73 362 -50 159 -198 240 -345 188z m94 -120 c31 -31 27 -88 -8
-117 -37 -32 -71 -30 -107 5 -38 38 -38 79 -2 116 23 22 34 26 62 21 19 -3 44
-14 55 -25z M4473 4439 c-68 -19 -82 -86 -31 -144 37 -42 96 -74 192 -104 97
-30 106 -29 106 14 0 51 -25 104 -73 153 -67 69 -135 97 -194 81z M5054 4439
c-89 -25 -185 -128 -198 -210 -10 -60 1 -66 79 -44 149 40 255 113 255 174 0
30 -40 81 -64 81 -8 0 -20 2 -28 4 -7 2 -27 0 -44 -5z M3954 3780 c-66 -33
-121 -86 -150 -146 -25 -50 -26 -57 -11 -71 14 -14 20 -13 66 11 l50 26 33
-28 c142 -123 355 -217 593 -263 106 -21 446 -18 558 4 197 40 369 114 515
224 l82 62 49 -26 c55 -28 71 -25 71 16 0 56 -87 151 -175 192 -80 37 -116 11
-76 -55 12 -18 21 -36 21 -39 0 -11 -112 -83 -185 -119 -153 -77 -289 -113
-488 -128 -215 -16 -421 12 -609 85 -87 34 -212 101 -267 144 l-24 18 23 30
c48 66 4 103 -76 63z"/>
</g>
</svg>
